<?xml version="1.0" encoding="UTF-8"?>
<svg version="1.1" xmlns="http://www.w3.org/2000/svg" width="512" height="512">
<path d="M0 0 C4.00820999 1.33607 4.81160708 3.78208995 6.6875 7.3125 C20.96592666 33.1620581 39.29864136 55.24364794 65.21484375 69.7734375 C68.40473742 71.57713877 71.13880347 73.70895049 74 76 C77.35575227 76 79.94941936 74.57383686 82.9375 73.1875 C106.29869644 62.53355469 137.39976218 60.97572704 161.74609375 69.27734375 C163.93402285 70.11885494 166.11011902 70.99266746 168.265625 71.9140625 C170.94264746 72.97722285 173.13743856 73.69577298 176 74 C178.0497783 73.06866226 178.0497783 73.06866226 179.86328125 71.45703125 C180.93449219 70.59694458 180.93449219 70.59694458 182.02734375 69.71948242 C182.78144531 69.09017822 183.53554688 68.46087402 184.3125 67.8125 C185.92197906 66.5115373 187.53268066 65.21208578 189.14453125 63.9140625 C189.95486816 63.25567383 190.76520508 62.59728516 191.60009766 61.91894531 C195.15924857 59.07307286 198.82806175 56.38499802 202.5 53.6875 C222.12941838 39.08445676 234.99210386 22.66111988 244 0 C248.18388935 1.4982847 249.99709191 4.44271484 252.25 8.0625 C252.63913574 8.68318359 253.02827148 9.30386719 253.42919922 9.94335938 C264.33516099 27.76454154 270.64175276 47.29787938 274.8125 67.6875 C275.00739014 68.63496094 275.20228027 69.58242187 275.40307617 70.55859375 C278.56617014 87.06411713 279.32815961 103.49709922 279.26074219 120.26977539 C279.25002307 123.43069684 279.26070673 126.59104874 279.2734375 129.75195312 C279.28012562 141.20613084 278.77564009 152.42855496 277.42871094 163.80493164 C276.31961946 171.29932087 276.31961946 171.29932087 279.2734375 177.8515625 C280.29337804 178.79136964 281.32823351 179.71516701 282.375 180.625 C295.03651605 192.47218618 309.25501459 209.59694869 310.1875 227.625 C310.125625 228.40875 310.06375 229.1925 310 230 C304.31531835 228.28137532 299.01576119 225.8358325 293.625 223.375 C292.69816406 222.95476562 291.77132813 222.53453125 290.81640625 222.1015625 C288.54305401 221.07035118 286.27097594 220.03643137 284 219 C284.53367187 219.74121094 285.06734375 220.48242188 285.6171875 221.24609375 C301.41076366 243.57023167 316.33089395 269.25613535 316.0625 297.4375 C316.05347656 298.67371094 316.04445313 299.90992188 316.03515625 301.18359375 C316.02355469 302.11300781 316.01195312 303.04242188 316 304 C312.98152277 301.40755409 311.57078822 298.40828226 309.8125 294.875 C306.57739223 288.72141202 302.47839244 281.23919622 296 278 C296.25692627 278.73935791 296.51385254 279.47871582 296.77856445 280.24047852 C308.92799817 315.39262132 308.92799817 315.39262132 308 330 C303.43695937 325.57548024 299.49276878 320.78713381 295.5 315.83984375 C293.17006215 313.19317997 290.82117787 311.10076995 288 309 C288.02094727 309.57218262 288.04189453 310.14436523 288.06347656 310.73388672 C288.84395143 335.47691578 284.77675912 356.05787962 268 375 C262.50043233 380.77894443 256.75500213 386.320511 251.05688477 391.90209961 C243.92927524 398.8969562 237.00521865 405.78604183 230.92749023 413.73266602 C229 416 229 416 224 420 C225.485 409.11 225.485 409.11 227 398 C208.49726767 421.78442586 208.49726767 421.78442586 196 449 C195.34 449 194.68 449 194 449 C193.2410019 446.2582346 192.8425396 443.72273023 192.71875 440.8828125 C192.68136719 440.11066406 192.64398438 439.33851563 192.60546875 438.54296875 C192.55326172 437.34607422 192.55326172 437.34607422 192.5 436.125 C192.27448855 431.00505482 191.97360793 426.04653443 191 421 C190.58492188 421.63421875 190.16984375 422.2684375 189.7421875 422.921875 C180.01983812 437.64777657 169.99473479 452.1909133 159 466 C158.26523437 466.928125 157.53046875 467.85625 156.7734375 468.8125 C134.14582744 496.95708919 134.14582744 496.95708919 125 500 C114.76006086 499.45748667 106.55689876 489.12655841 100 482 C96.90735556 478.40508301 93.95457767 474.70863521 91 471 C90.07579792 469.87630349 89.14994517 468.75396306 88.22265625 467.6328125 C80.70604828 458.48319146 73.99142579 448.89939292 67.39648438 439.0703125 C65.60875715 436.41997563 63.77921957 433.80053802 61.9375 431.1875 C59.57051057 427.82543292 57.25984739 424.43496803 55 421 C53.87432688 426.83473899 53.65274809 432.62310863 53.39453125 438.54296875 C53.35714844 439.31511719 53.31976563 440.08726562 53.28125 440.8828125 C53.25095703 441.57777832 53.22066406 442.27274414 53.18945312 442.98876953 C52.99304799 445.07380236 52.55803165 446.9841954 52 449 C51.34 449 50.68 449 50 449 C49.67128906 448.07960938 49.34257812 447.15921875 49.00390625 446.2109375 C45.44117689 436.59284979 40.8751632 428.38146551 35 420 C34.57605957 419.3920459 34.15211914 418.7840918 33.71533203 418.15771484 C28.94099857 411.33647298 23.99693782 404.66258376 19 398 C19.99 405.26 20.98 412.52 22 420 C17.79758383 416.49798653 15.24024004 414.28836668 12.125 410.17578125 C8.18770804 405.25334191 3.94329769 400.82295605 -0.5625 396.41796875 C-1.58428345 395.41638229 -1.58428345 395.41638229 -2.62670898 394.39456177 C-5.45658095 391.62814889 -8.2926417 388.86851363 -11.14355469 386.1237793 C-28.76093606 369.12231968 -41.67977962 350.58618136 -42.1796875 325.15234375 C-42.2154799 319.76623405 -42.14388275 314.3841662 -42 309 C-46.67520915 312.62553147 -50.15572472 316.46035462 -53.6875 321.1875 C-58.61728924 327.74485949 -58.61728924 327.74485949 -62 330 C-63.1527732 312.13201534 -55.79827321 294.57192058 -50 278 C-54.26626077 281.42117016 -57.77436368 284.57314159 -60.625 289.3125 C-61.19605469 290.25351562 -61.76710938 291.19453125 -62.35546875 292.1640625 C-64.62628135 296.08000062 -66.8620368 300.00979219 -69 304 C-69.33 304 -69.66 304 -70 304 C-71.29896125 273.20980743 -57.65330454 246.38743149 -40 222 C-39.34 221.01 -38.68 220.02 -38 219 C-39.07483643 219.49983398 -39.07483643 219.49983398 -40.17138672 220.00976562 C-43.40412008 221.51043393 -46.63951022 223.00528452 -49.875 224.5 C-51.00292969 225.02464844 -52.13085938 225.54929688 -53.29296875 226.08984375 C-54.36933594 226.58613281 -55.44570312 227.08242187 -56.5546875 227.59375 C-58.04718018 228.28500977 -58.04718018 228.28500977 -59.56982422 228.99023438 C-62 230 -62 230 -64 230 C-63.60709171 213.85504127 -54.54234366 201.2209026 -44.5 189.25 C-43.80414795 188.41843384 -43.80414795 188.41843384 -43.09423828 187.57006836 C-40.36535475 184.38285883 -37.50428241 181.75345887 -34.25 179.125 C-31.54931646 176.51782282 -31.03568824 175.40323081 -30.69921875 171.6015625 C-30.89530706 168.43200384 -31.22550512 165.34781209 -31.69743347 162.20959473 C-32.85508457 153.75545485 -33.16525583 145.25709218 -33.203125 136.734375 C-33.20882507 135.69847229 -33.21452515 134.66256958 -33.22039795 133.59527588 C-33.22977532 131.4137878 -33.23635269 129.23228603 -33.24023438 127.05078125 C-33.24985441 123.79921021 -33.28091364 120.54829616 -33.3125 117.296875 C-33.50793889 78.64155294 -27.11952313 29.90331524 0 0 Z " fill="#716770" transform="translate(133,6)"/>
<path d="M0 0 C0.495 0.99 0.495 0.99 1 2 C-0.0390625 4.29296875 -0.0390625 4.29296875 -1.625 7.1875 C-11.01092002 25.3918193 -16.11129773 48.03875422 -10.375 68.1875 C-5.9431227 80.17055499 1.57456609 90.11749857 11.875 97.6875 C18.72138267 102.99133349 23.2083667 109.88723978 28 117 C28.47163574 117.68400879 28.94327148 118.36801758 29.42919922 119.07275391 C37.20481081 130.41361376 43.33299151 142.37295908 49.0168457 154.86181641 C54.18050044 166.01591858 59.35984694 173.70196822 70 180 C73.59420825 182.27388685 76.74557312 184.63794163 79.875 187.5 C88.79522036 195.37672288 100.36173474 198.67785317 112.2109375 198.28515625 C123.59242039 197.12150324 133.17493419 193.47715462 141 185 C144.10847295 182.2467811 147.33996796 180.22322921 150.9375 178.1875 C159.76464908 172.88077965 163.28452345 165.85228215 167.6640625 156.796875 C180.98403452 129.26971108 180.98403452 129.26971108 190 117 C190.763125 115.95457031 191.52625 114.90914063 192.3125 113.83203125 C194.51111672 110.86317545 196.74527364 107.92634698 199 105 C199.44988281 104.39285156 199.89976562 103.78570312 200.36328125 103.16015625 C202.6908788 100.14467763 205.29014572 97.9529785 208.3125 95.6875 C217.17506525 88.94488391 222.71660815 81.26145899 227 71 C227.34160156 70.18402344 227.68320312 69.36804688 228.03515625 68.52734375 C234.53616538 49.4476379 229.1500117 26.72170075 221 9 C220.26298828 7.70918305 219.51190639 6.42628475 218.74609375 5.15234375 C218.16988281 4.11207031 217.59367187 3.07179687 217 2 C217.33 1.34 217.66 0.68 218 0 C223.21228231 5.42590044 227.98734609 10.71513905 232.0625 17.0625 C239.7062384 28.92717827 249.6525422 38.23886475 261.3125 46.0625 C261.95590332 46.49699463 262.59930664 46.93148926 263.26220703 47.37915039 C266.25859002 49.3588094 269.09990086 51.04493811 272.38671875 52.5234375 C278.57696858 55.33506916 281.5355031 58.08560534 284.06201172 64.30419922 C285.55968082 68.48815045 286.81581582 72.71798363 288 77 C288.24862793 77.87027832 288.49725586 78.74055664 288.75341797 79.63720703 C294.17900804 98.75340505 294.17900804 98.75340505 294.0625 107.375 C294.05347656 108.24898438 294.04445313 109.12296875 294.03515625 110.0234375 C294.01775391 111.00183594 294.01775391 111.00183594 294 112 C289.43695937 107.57548024 285.49276878 102.78713381 281.5 97.83984375 C279.17006215 95.19317997 276.82117787 93.10076995 274 91 C274.02094727 91.57218262 274.04189453 92.14436523 274.06347656 92.73388672 C274.84395143 117.47691578 270.77675912 138.05787962 254 157 C248.50043233 162.77894443 242.75500213 168.320511 237.05688477 173.90209961 C229.92927524 180.8969562 223.00521865 187.78604183 216.92749023 195.73266602 C215 198 215 198 210 202 C211.485 191.11 211.485 191.11 213 180 C194.49726767 203.78442586 194.49726767 203.78442586 182 231 C181.34 231 180.68 231 180 231 C179.2410019 228.2582346 178.8425396 225.72273023 178.71875 222.8828125 C178.66267578 221.72458984 178.66267578 221.72458984 178.60546875 220.54296875 C178.57066406 219.74503906 178.53585937 218.94710937 178.5 218.125 C178.27448855 213.00505482 177.97360793 208.04653443 177 203 C176.58492187 203.63421875 176.16984375 204.2684375 175.7421875 204.921875 C166.01983812 219.64777657 155.99473479 234.1909133 145 248 C144.26523437 248.928125 143.53046875 249.85625 142.7734375 250.8125 C120.14582744 278.95708919 120.14582744 278.95708919 111 282 C100.76006086 281.45748667 92.55689876 271.12655841 86 264 C82.90735556 260.40508301 79.95457767 256.70863521 77 253 C76.07579792 251.87630349 75.14994517 250.75396306 74.22265625 249.6328125 C66.70604828 240.48319146 59.99142579 230.89939292 53.39648438 221.0703125 C51.60875715 218.41997563 49.77921957 215.80053802 47.9375 213.1875 C45.57051057 209.82543292 43.25984739 206.43496803 41 203 C39.87432688 208.83473899 39.65274809 214.62310863 39.39453125 220.54296875 C39.35714844 221.31511719 39.31976563 222.08726562 39.28125 222.8828125 C39.25095703 223.57777832 39.22066406 224.27274414 39.18945312 224.98876953 C38.99304799 227.07380236 38.55803165 228.9841954 38 231 C37.34 231 36.68 231 36 231 C35.67128906 230.07960938 35.34257812 229.15921875 35.00390625 228.2109375 C31.44117689 218.59284979 26.8751632 210.38146551 21 202 C20.57605957 201.3920459 20.15211914 200.7840918 19.71533203 200.15771484 C14.94099857 193.33647298 9.99693782 186.66258376 5 180 C5.99 187.26 6.98 194.52 8 202 C3.79758383 198.49798653 1.24024004 196.28836668 -1.875 192.17578125 C-5.81229196 187.25334191 -10.05670231 182.82295605 -14.5625 178.41796875 C-15.58428345 177.41638229 -15.58428345 177.41638229 -16.62670898 176.39456177 C-19.45658095 173.62814889 -22.2926417 170.86851363 -25.14355469 168.1237793 C-42.76093606 151.12231968 -55.67977962 132.58618136 -56.1796875 107.15234375 C-56.2154799 101.76623405 -56.14388275 96.3841662 -56 91 C-60.67520915 94.62553147 -64.15572472 98.46035462 -67.6875 103.1875 C-72.61728924 109.74485949 -72.61728924 109.74485949 -76 112 C-76.91070163 97.88412478 -72.27947567 84.32103285 -67.9375 71.0625 C-67.5971875 70.01368652 -67.256875 68.96487305 -66.90625 67.88427734 C-66.57496094 66.90281738 -66.24367188 65.92135742 -65.90234375 64.91015625 C-65.60835693 64.03496338 -65.31437012 63.15977051 -65.01147461 62.25805664 C-62.97260481 57.70640162 -59.37719295 55.91205355 -55.1875 53.4375 C-38.45001637 43.31831707 -24.30032341 32.17042547 -13 16 C-4.52411283 4.09997725 -4.52411283 4.09997725 0 0 Z " fill="#ABA5AD" transform="translate(147,224)"/>
<path d="M0 0 C0.66 0 1.32 0 2 0 C2.43699219 1.32451172 2.43699219 1.32451172 2.8828125 2.67578125 C7.53244036 16.45139546 7.53244036 16.45139546 15.9375 28.125 C18.43339642 31.60412834 18.01380877 33.29038401 17.44702148 37.39990234 C16.64707875 42.05276425 15.59895668 46.64519791 14.5625 51.25 C12.11770084 62.46021324 10.79805979 73.56511344 10 85 C11.24265625 85.11601563 12.4853125 85.23203125 13.765625 85.3515625 C19.50764684 85.99131083 25.10526573 87.16353014 30.75 88.375 C31.80533936 88.59978027 32.86067871 88.82456055 33.94799805 89.05615234 C36.02813338 89.50076387 38.10782298 89.94746703 40.18701172 90.39648438 C42.57143356 90.90805275 44.9580943 91.40383034 47.34765625 91.890625 C49.06275391 92.25414063 49.06275391 92.25414063 50.8125 92.625 C52.24529297 92.92277344 52.24529297 92.92277344 53.70703125 93.2265625 C56.24702298 94.08332291 57.44071706 94.82437887 59 97 C58.6875 100.1875 58.6875 100.1875 58 103 C53.71456517 103.91205586 50.53635136 103.96324782 46.26953125 103.00390625 C44.69461914 102.66069336 44.69461914 102.66069336 43.08789062 102.31054688 C42.00701172 102.06369141 40.92613281 101.81683594 39.8125 101.5625 C37.65289229 101.08216247 35.49275765 100.60418618 33.33203125 100.12890625 C31.90467651 99.80515015 31.90467651 99.80515015 30.44848633 99.47485352 C27.9248303 98.90480491 27.9248303 98.90480491 25 99 C25.73347656 99.56847656 26.46695313 100.13695313 27.22265625 100.72265625 C34.74887892 106.92376682 34.74887892 106.92376682 35.875 111.75 C32.83434859 117.02046245 27.59273698 118.16949634 22 120 C22.515625 120.391875 23.03125 120.78375 23.5625 121.1875 C25 123 25 123 25.02734375 125.38671875 C23.62326006 128.95832327 21.56501834 130.45811956 18.5625 132.8125 C17.57378906 133.60269531 16.58507812 134.39289063 15.56640625 135.20703125 C13 137 13 137 11 137 C11.0721875 137.68964844 11.144375 138.37929687 11.21875 139.08984375 C11.41311645 141.05780409 11.58347427 143.02823044 11.734375 145 C11.93811811 147.89862676 11.93811811 147.89862676 12.453125 150.3125 C12.81387399 152.89470327 12.76872249 154.49022495 12 157 C9.60124272 160.17415897 6.95557052 162.93596202 4.15625 165.75390625 C-8.14051233 178.145551 -19.11390164 193.33416784 -21 211 C-20.19256348 210.60095459 -19.38512695 210.20190918 -18.55322266 209.79077148 C-15.56326794 208.31776325 -12.57001857 206.85192922 -9.57421875 205.39086914 C-8.2769193 204.75635582 -6.98100983 204.11899252 -5.68652344 203.47875977 C-3.82843029 202.56038371 -1.9656226 201.65228435 -0.1015625 200.74609375 C1.01911621 200.19622803 2.13979492 199.6463623 3.29443359 199.07983398 C4.18727051 198.72348877 5.08010742 198.36714355 6 198 C6.66 198.33 7.32 198.66 8 199 C7.55011719 199.51304687 7.10023438 200.02609375 6.63671875 200.5546875 C-3.84101413 213.02717914 -11.42352642 227.2138919 -18.125 241.98828125 C-18.74951021 243.32574964 -19.37444785 244.66301862 -20 246 C-20.40863281 246.90621094 -20.81726563 247.81242188 -21.23828125 248.74609375 C-23.91104531 252.16557238 -27.3999766 253.73727122 -31.1875 255.75 C-44.30585715 263.16198148 -50.09575144 272.97462366 -57 286 C-57.33 286 -57.66 286 -58 286 C-59.29896125 255.20980743 -45.65330454 228.38743149 -28 204 C-27.34 203.01 -26.68 202.02 -26 201 C-27.07483643 201.49983398 -27.07483643 201.49983398 -28.17138672 202.00976562 C-31.40412008 203.51043393 -34.63951022 205.00528452 -37.875 206.5 C-39.00292969 207.02464844 -40.13085938 207.54929688 -41.29296875 208.08984375 C-42.36933594 208.58613281 -43.44570312 209.08242187 -44.5546875 209.59375 C-46.04718018 210.28500977 -46.04718018 210.28500977 -47.56982422 210.99023438 C-50 212 -50 212 -52 212 C-51.60709171 195.85504127 -42.54234366 183.2209026 -32.5 171.25 C-31.80414795 170.41843384 -31.80414795 170.41843384 -31.09423828 169.57006836 C-28.36535475 166.38285883 -25.50428241 163.75345887 -22.25 161.125 C-19.54931646 158.51782282 -19.03568824 157.40323081 -18.69921875 153.6015625 C-18.89530706 150.43200384 -19.22550512 147.34781209 -19.69743347 144.20959473 C-20.85508457 135.75545485 -21.16525583 127.25709218 -21.203125 118.734375 C-21.20882507 117.69847229 -21.21452515 116.66256958 -21.22039795 115.59527588 C-21.22977532 113.4137878 -21.23635269 111.23228603 -21.24023438 109.05078125 C-21.24985441 105.79921021 -21.28091364 102.54829616 -21.3125 99.296875 C-21.48410492 65.35560835 -15.94714929 30.31347204 0 0 Z " fill="#5B535B" transform="translate(121,24)"/>
<path d="M0 0 C0.495 0.99 0.495 0.99 1 2 C0.00300262 4.18676767 -1.04764727 6.2644013 -2.1875 8.375 C-5.4904716 14.74390352 -8.09285616 21.06144652 -10 28 C-10.33837891 29.21429688 -10.33837891 29.21429688 -10.68359375 30.453125 C-14.65704101 47.88148677 -12.76185907 65.91981741 -3.7421875 81.37890625 C8.85748262 100.33491219 30.15084006 109.12737675 51 116 C50.93941406 116.63164062 50.87882812 117.26328125 50.81640625 117.9140625 C50.09635714 125.60197142 49.52854446 133.29674563 49 141 C51.08041893 138.99257822 52.85816039 136.90845938 54.625 134.625 C59.15685153 129.29075081 65.06756741 125.9790454 72 125 C84.03618607 124.26284403 92.76309061 124.50550991 102.375 132.4375 C107.59878419 137.36011174 109.54340603 141.26492556 110.06640625 148.4375 C109.90797931 154.55091592 107.29433833 159.70566167 103 164 C96.31810019 169.19358802 88.51457692 172.28734807 80 172 C83.91496957 177.95756238 90.07551286 181.54360845 97 183 C99.75970408 183.06926968 102.49196042 183.0941736 105.25 183.0625 C106.36761719 183.05573242 106.36761719 183.05573242 107.5078125 183.04882812 C109.3385764 183.03709246 111.16929873 183.0191585 113 183 C108.58917767 191.14623748 101.05050575 194.30267564 92.578125 197.23828125 C80.41560116 200.8317542 67.19492981 199.37125103 55.98046875 193.359375 C52.55676972 191.0093804 49.65952404 188.07019625 46.64453125 185.2265625 C43.98986962 182.99147073 41.47602615 181.53550119 38.375 180 C27.58084985 174.38279106 23.181596 164.97464109 18.16748047 154.43115234 C10.63386737 138.7432144 2.30878333 124.03208576 -8 110 C-8.76441406 108.948125 -9.52882812 107.89625 -10.31640625 106.8125 C-13.81607133 102.21020072 -17.33986007 98.7268562 -22.0625 95.40625 C-33.26078287 87.27846405 -40.23051844 74.40625142 -43 61 C-43.68976722 55.79375701 -43.92088823 51.15479447 -43 46 C-40.24723701 42.41740201 -36.78382127 40.3984878 -33 38 C-23.29457655 30.0961821 -16.19424246 20.8480802 -9.234375 10.56469727 C-6.4886972 6.56118594 -3.60498745 3.23524515 0 0 Z " fill="#5B535B" transform="translate(177,224)"/>
<path d="M0 0 C0.495 0.99 0.495 0.99 1 2 C-0.0390625 4.29296875 -0.0390625 4.29296875 -1.625 7.1875 C-9.14834143 21.77928315 -12.01487359 36.69356542 -13 53 C-13.33 53 -13.66 53 -14 53 C-14.33 51.35 -14.66 49.7 -15 48 C-17.08485667 49.26838823 -19.16789576 50.53960758 -21.25 51.8125 C-21.83652344 52.16892578 -22.42304687 52.52535156 -23.02734375 52.89257812 C-24.69422314 53.91330764 -26.34747331 54.95619389 -28 56 C-28.72832031 56.40863281 -29.45664063 56.81726563 -30.20703125 57.23828125 C-33.10218895 60.08297868 -34.11100937 63.59520667 -35.4375 67.375 C-35.735354 68.20700928 -36.03320801 69.03901855 -36.34008789 69.89624023 C-38.52833015 76.2049773 -40.34498564 82.57915038 -41.9375 89.0625 C-42.14882568 89.90538574 -42.36015137 90.74827148 -42.57788086 91.61669922 C-43.93511572 97.47824648 -44.23691054 102.99427787 -44 109 C-43.46890625 108.33613281 -42.9378125 107.67226563 -42.390625 106.98828125 C-40.26041667 104.32552083 -38.13020833 101.66276042 -36 99 C-35.30648437 98.113125 -34.61296875 97.22625 -33.8984375 96.3125 C-31.81993044 93.78065601 -29.6673542 91.89522536 -27 90 C-26.34 90 -25.68 90 -25 90 C-25.00112793 90.74870361 -25.00225586 91.49740723 -25.00341797 92.26879883 C-24.89222744 123.83482358 -17.74259152 143.34117587 4.65306091 165.6934967 C7.84071293 168.85462643 11.03676462 172.00707347 14.24414062 175.14819336 C20.65928755 181.44019584 26.68905997 187.77898069 32.27099609 194.83569336 C33.96776649 197.04184349 33.96776649 197.04184349 36 199 C35.77183594 197.74703125 35.54367188 196.4940625 35.30859375 195.203125 C35.01779862 193.55215911 34.72745776 191.90111316 34.4375 190.25 C34.28603516 189.425 34.13457031 188.6 33.97851562 187.75 C33.83994141 186.95078125 33.70136719 186.1515625 33.55859375 185.328125 C33.42767334 184.5949707 33.29675293 183.86181641 33.16186523 183.10644531 C32.98752588 180.83766713 33.33125193 179.16221421 34 177 C66 214.41414141 66 214.41414141 66 230 C66.66 230 67.32 230 68 230 C68.33 219.77 68.66 209.54 69 199 C71.9260566 201.9260566 73.88640677 204.0989602 76.06640625 207.45703125 C76.62875977 208.31490234 77.19111328 209.17277344 77.77050781 210.05664062 C78.36186523 210.96607422 78.95322266 211.87550781 79.5625 212.8125 C85.44985904 221.75245011 91.54968069 230.4596883 98 239 C98.41169434 239.55059082 98.82338867 240.10118164 99.24755859 240.66845703 C106.8776828 250.8671379 114.8370724 261.11934268 124 270 C121.83290066 275.22178725 117.62822959 277.99282544 113 281 C109.8125 282.1875 109.8125 282.1875 107 282 C104.5915529 280.79577645 103.0277199 279.71401436 101 278 C100.28070313 277.40058594 99.56140625 276.80117188 98.8203125 276.18359375 C86.16713898 265.20807742 75.90022655 252.4389439 66 239 C65.44634766 238.24992676 64.89269531 237.49985352 64.32226562 236.72705078 C56.92413433 226.67169288 49.83756146 216.44357764 43 206 C42.34 205.01 41.68 204.02 41 203 C39.87432688 208.83473899 39.65274809 214.62310863 39.39453125 220.54296875 C39.35714844 221.31511719 39.31976563 222.08726562 39.28125 222.8828125 C39.25095703 223.57777832 39.22066406 224.27274414 39.18945312 224.98876953 C38.99304799 227.07380236 38.55803165 228.9841954 38 231 C37.34 231 36.68 231 36 231 C35.67128906 230.07960938 35.34257812 229.15921875 35.00390625 228.2109375 C31.44117689 218.59284979 26.8751632 210.38146551 21 202 C20.57605957 201.3920459 20.15211914 200.7840918 19.71533203 200.15771484 C14.94099857 193.33647298 9.99693782 186.66258376 5 180 C5.99 187.26 6.98 194.52 8 202 C3.79758383 198.49798653 1.24024004 196.28836668 -1.875 192.17578125 C-5.81229196 187.25334191 -10.05670231 182.82295605 -14.5625 178.41796875 C-15.58428345 177.41638229 -15.58428345 177.41638229 -16.62670898 176.39456177 C-19.45658095 173.62814889 -22.2926417 170.86851363 -25.14355469 168.1237793 C-42.76093606 151.12231968 -55.67977962 132.58618136 -56.1796875 107.15234375 C-56.2154799 101.76623405 -56.14388275 96.3841662 -56 91 C-60.67520915 94.62553147 -64.15572472 98.46035462 -67.6875 103.1875 C-72.61728924 109.74485949 -72.61728924 109.74485949 -76 112 C-76.91070163 97.88412478 -72.27947567 84.32103285 -67.9375 71.0625 C-67.5971875 70.01368652 -67.256875 68.96487305 -66.90625 67.88427734 C-66.57496094 66.90281738 -66.24367188 65.92135742 -65.90234375 64.91015625 C-65.60835693 64.03496338 -65.31437012 63.15977051 -65.01147461 62.25805664 C-62.97260481 57.70640162 -59.37719295 55.91205355 -55.1875 53.4375 C-38.45001637 43.31831707 -24.30032341 32.17042547 -13 16 C-4.52411283 4.09997725 -4.52411283 4.09997725 0 0 Z " fill="#8F8991" transform="translate(147,224)"/>
<path d="M0 0 C6.29464453 4.70148671 10.69327232 8.82060968 11.875 16.8125 C12.33385609 23.10538356 10.61420238 27.42923325 7.3125 32.6875 C1.18890406 38.81109594 -7.05395606 42.84243398 -15.80078125 43.07421875 C-16.52652344 43.04972656 -17.25226563 43.02523437 -18 43 C-14.08503043 48.95756238 -7.92448714 52.54360845 -1 54 C1.75970408 54.06926968 4.49196042 54.0941736 7.25 54.0625 C7.99507813 54.05798828 8.74015625 54.05347656 9.5078125 54.04882812 C11.3385764 54.03709246 13.16929873 54.0191585 15 54 C10.58917767 62.14623748 3.05050575 65.30267564 -5.421875 68.23828125 C-17.66613038 71.85590216 -30.85529842 70.34208615 -42.109375 64.2421875 C-45.70478749 61.87991235 -49.07444133 59.15898091 -52 56 C-52 55.34 -52 54.68 -52 54 C-50.94941406 54.04640625 -49.89882812 54.0928125 -48.81640625 54.140625 C-38.78241563 54.45261828 -31.6133924 53.79334094 -23.5 47.375 C-20.98682817 45.25735725 -20.98682817 45.25735725 -20 43 C-20.969375 42.896875 -21.93875 42.79375 -22.9375 42.6875 C-32.25774719 41.26227105 -38.60889056 38.11887552 -45 31 C-48.32740399 25.55515711 -48.86157235 20.23660894 -48 14 C-45.74931839 6.4307434 -40.5142412 2.0382599 -33.875 -1.8125 C-24.02920717 -5.87924052 -8.98468231 -6.23278164 0 0 Z " fill="#403C42" transform="translate(275,353)"/>
<path d="M0 0 C4.00820999 1.33607 4.81160708 3.78208995 6.6875 7.3125 C20.91020906 33.06118736 39.20236694 55.18674282 65.01953125 69.67578125 C71.02035062 73.0890112 76.22348973 76.98466421 81 82 C82.26817191 83.27348919 83.53911736 84.5442211 84.8125 85.8125 C85.875 86.875 86.9375 87.9375 88 89 C86.06753465 89.9876095 84.15256792 90.93813948 82.140625 91.75390625 C75.86902587 94.43618108 72.26626015 98.8123879 68 104 C67.34 104.66 66.68 105.32 66 106 C65.64550781 105.42894531 65.29101562 104.85789062 64.92578125 104.26953125 C54.98224982 89.1255088 40.93940967 78.56149619 26.22265625 68.37890625 C9.87343963 57.03929666 -1.58361462 43.61415147 -9 25 C-9.37125 24.23300781 -9.7425 23.46601563 -10.125 22.67578125 C-11.1128651 20.10638211 -11.39551247 18.74685584 -11 16 C-8.35346215 10.21492911 -4.48760428 4.48760428 0 0 Z " fill="#8E848E" transform="translate(133,6)"/>
<path d="M0 0 C4.39761095 1.51991162 6.42665499 4.90569882 8.875 8.625 C9.30296875 9.21667969 9.7309375 9.80835938 10.171875 10.41796875 C11.87313248 12.99209363 13.05319467 14.8950859 12.90185547 18.03857422 C10.40859354 28.71419929 4.22321668 37.95596325 -3 46 C-3.77859375 46.87269531 -4.5571875 47.74539062 -5.359375 48.64453125 C-11.26390845 54.89796895 -17.5806088 59.6781884 -24.65209961 64.51464844 C-31.3693407 69.1472285 -37.21549184 74.24116273 -43 80 C-43.80953125 80.77472656 -44.6190625 81.54945312 -45.453125 82.34765625 C-52.71904309 89.74950138 -57.7250304 99.1750912 -61 109 C-64.59459922 107.80180026 -64.86607696 106.97177544 -66.75 103.8125 C-71.79961809 96.00854477 -77.00935706 92.32411178 -86 90 C-82.16006453 85.90406883 -77.9355038 82.50001545 -73.5 79.0625 C-70.95844778 77.04502776 -70.95844778 77.04502776 -68.75 74.66796875 C-65.11080385 71.13732816 -61.10609837 68.27482932 -57 65.3125 C-55.29230261 64.06601627 -53.58527355 62.81861642 -51.87890625 61.5703125 C-50.63004639 60.65813965 -50.63004639 60.65813965 -49.35595703 59.72753906 C-26.70207765 43.11625922 -10.4380127 26.25885707 0 0 Z " fill="#8F858F" transform="translate(377,6)"/>
<path d="M0 0 C7.57279568 0.87925907 14.97954196 2.36517649 22.43286133 3.95263672 C24.27654297 4.33742188 24.27654297 4.33742188 26.1574707 4.72998047 C28.60709963 5.24446718 31.05522413 5.76617459 33.50170898 6.29541016 C35.94117966 6.82273872 38.38370035 7.33612636 40.82885742 7.83642578 C41.9911084 8.08360352 43.15335938 8.33078125 44.35083008 8.58544922 C45.39005615 8.80088379 46.42928223 9.01631836 47.5 9.23828125 C50.23200779 10.11339937 51.48580243 10.73359303 53.12036133 13.07763672 C52.80786133 16.26513672 52.80786133 16.26513672 52.12036133 19.07763672 C47.8349265 19.98969257 44.65671269 20.04088454 40.38989258 19.08154297 C39.33995117 18.85273437 38.29000977 18.62392578 37.20825195 18.38818359 C36.12737305 18.14132813 35.04649414 17.89447266 33.93286133 17.64013672 C31.77325362 17.15979919 29.61311898 16.6818229 27.45239258 16.20654297 C26.50082275 15.99070557 25.54925293 15.77486816 24.56884766 15.55249023 C22.04519163 14.98244163 22.04519163 14.98244163 19.12036133 15.07763672 C19.85383789 15.64611328 20.58731445 16.21458984 21.34301758 16.80029297 C28.86924025 23.00140353 28.86924025 23.00140353 29.99536133 27.82763672 C26.95470991 33.09809917 21.71309831 34.24713306 16.12036133 36.07763672 C16.63598633 36.46951172 17.15161133 36.86138672 17.68286133 37.26513672 C19.12036133 39.07763672 19.12036133 39.07763672 19.26879883 41.37451172 C17.49675166 45.54545266 14.28941852 47.62422925 10.74536133 50.32763672 C9.28424327 51.4758445 7.82330659 52.6242831 6.36254883 53.77294922 C5.28118652 54.6126123 5.28118652 54.6126123 4.17797852 55.46923828 C1.36773216 57.66595197 -1.38031046 59.93015676 -4.12963867 62.20263672 C-5.7073994 63.5011044 -7.29001962 64.79371364 -8.87963867 66.07763672 C-9.5937793 66.65642578 -10.30791992 67.23521484 -11.04370117 67.83154297 C-12.87963867 69.07763672 -12.87963867 69.07763672 -15.00463867 68.89013672 C-16.87963867 68.07763672 -16.87963867 68.07763672 -18.87963867 66.07763672 C-19.39526367 63.83544922 -19.39526367 63.83544922 -18.87963867 61.07763672 C-17.05048545 58.74585064 -14.87267823 56.87867283 -12.62963867 54.95263672 C-12.04311523 54.42798828 -11.4565918 53.90333984 -10.85229492 53.36279297 C-7.95840006 50.79405483 -5.02579932 48.33601937 -1.87963867 46.07763672 C-2.48291992 46.04025391 -3.08620117 46.00287109 -3.70776367 45.96435547 C-7.2744732 45.67096485 -10.20202354 45.40818068 -13.44213867 43.82763672 C-14.87963867 42.07763672 -14.87963867 42.07763672 -15.37963867 39.57763672 C-14.87963867 37.07763672 -14.87963867 37.07763672 -13.29760742 35.57373047 C-10.25405566 33.69056355 -7.08875092 32.67856713 -3.69213867 31.64013672 C2.10956244 29.79455732 7.60870619 27.68842073 13.12036133 25.07763672 C10.77983854 21.85941789 8.24549881 19.22646213 5.24536133 16.64013672 C4.55829102 16.04587891 3.8712207 15.45162109 3.16333008 14.83935547 C1.85697389 13.71284182 0.54737808 12.59006713 -0.76635742 11.47216797 C-2.44213867 9.95263672 -2.44213867 9.95263672 -4.87963867 7.07763672 C-4.87963867 3.56313349 -4.09274192 0.16904688 0 0 Z " fill="#494349" transform="translate(126.879638671875,107.92236328125)"/>
<path d="M0 0 C1.0625 1.8125 1.0625 1.8125 1.0625 4.1875 C-1.04504082 9.71979466 -6.90749114 13.67294759 -11.25 17.625 C-11.79978516 18.12708984 -12.34957031 18.62917969 -12.91601562 19.14648438 C-14.25555239 20.36953968 -15.59638992 21.59117008 -16.9375 22.8125 C-14.57097521 25.17902479 -12.7044495 25.77440599 -9.5625 26.90625 C-8.49515625 27.29683594 -7.4278125 27.68742187 -6.328125 28.08984375 C-5.20921875 28.49332031 -4.0903125 28.89679688 -2.9375 29.3125 C-0.72732262 30.10948792 1.48110906 30.91133882 3.6875 31.71875 C4.66976562 32.07259766 5.65203125 32.42644531 6.6640625 32.79101562 C9.0625 33.8125 9.0625 33.8125 11.0625 35.8125 C11.41771031 38.58314043 11.55705447 40.14339689 9.8671875 42.4296875 C7.50890999 44.23667936 5.81724316 44.30894525 2.875 44.5 C2.02510498 44.55518799 1.17520996 44.61037598 0.29956055 44.66723633 C-0.43866943 44.71517334 -1.17689941 44.76311035 -1.9375 44.8125 C-1.4935791 45.19583496 -1.0496582 45.57916992 -0.59228516 45.97412109 C1.41833465 47.71111559 3.42792792 49.44929349 5.4375 51.1875 C6.48550781 52.09242188 6.48550781 52.09242188 7.5546875 53.015625 C8.225 53.59570312 8.8953125 54.17578125 9.5859375 54.7734375 C10.20388184 55.30759277 10.82182617 55.84174805 11.45849609 56.39208984 C15.02939267 59.55426279 15.02939267 59.55426279 15.375 62.25 C15.0625 64.8125 15.0625 64.8125 13.875 66.6875 C12.0625 67.8125 12.0625 67.8125 9.74609375 67.6484375 C6.36726479 66.59593474 4.82809636 65.04605055 2.3125 62.5625 C-3.2295836 57.30851376 -9.13804494 52.73208397 -15.27441406 48.19238281 C-15.97920898 47.66612305 -16.68400391 47.13986328 -17.41015625 46.59765625 C-18.35773804 45.89974976 -18.35773804 45.89974976 -19.32446289 45.18774414 C-20.9375 43.8125 -20.9375 43.8125 -22.9375 40.8125 C-22.57861965 37.85173709 -22.09091979 36.96591979 -19.9375 34.8125 C-20.79214844 34.53277344 -21.64679688 34.25304687 -22.52734375 33.96484375 C-31.39938341 30.74523543 -31.39938341 30.74523543 -33.8125 26.5625 C-32.39730633 20.49738429 -27.71869116 17.51813322 -22.9375 13.8125 C-24.45869093 14.08131752 -25.97941853 14.35275616 -27.5 14.625 C-28.49644531 14.80289063 -29.49289062 14.98078125 -30.51953125 15.1640625 C-32.94059517 15.62337291 -35.35431498 16.12220215 -37.76171875 16.6484375 C-38.41261475 16.78918701 -39.06351074 16.92993652 -39.73413086 17.07495117 C-41.61097646 17.48334865 -43.48524475 17.90353632 -45.359375 18.32421875 C-49.14683233 18.84106609 -52.19846174 18.52675218 -55.9375 17.8125 C-56.625 15 -56.625 15 -56.9375 11.8125 C-55.21414787 9.13273471 -53.75336469 8.75983887 -50.66625977 7.87695312 C-49.32277313 7.60430694 -47.97674317 7.34400571 -46.62890625 7.09375 C-45.90694565 6.94973755 -45.18498505 6.8057251 -44.44114685 6.65734863 C-42.12941321 6.1982099 -39.81502395 5.75471997 -37.5 5.3125 C-34.47954958 4.72337886 -31.46042831 4.12764076 -28.44140625 3.53125 C-27.70781891 3.38816406 -26.97423157 3.24507813 -26.21841431 3.09765625 C-20.92963731 2.05279832 -15.72577711 0.79360444 -10.53100586 -0.65429688 C-6.83421699 -1.41432576 -3.30820225 -2.02760783 0 0 Z " fill="#494349" transform="translate(388.9375,109.1875)"/>
<path d="M0 0 C3.96 0 7.92 0 12 0 C12 0.33 12 0.66 12 1 C10.35 1 8.7 1 7 1 C10.91496957 6.95756238 17.07551286 10.54360845 24 12 C26.75970408 12.06926968 29.49196042 12.0941736 32.25 12.0625 C32.99507813 12.05798828 33.74015625 12.05347656 34.5078125 12.04882812 C36.3385764 12.03709246 38.16929873 12.0191585 40 12 C35.58917767 20.14623748 28.05050575 23.30267564 19.578125 26.23828125 C7.33386962 29.85590216 -5.85529842 28.34208615 -17.109375 22.2421875 C-20.70478749 19.87991235 -24.07444133 17.15898091 -27 14 C-27 13.34 -27 12.68 -27 12 C-25.94941406 12.04640625 -24.89882812 12.0928125 -23.81640625 12.140625 C-13.78241563 12.45261828 -6.6133924 11.79334094 1.5 5.375 C4.01317183 3.25735725 4.01317183 3.25735725 5 1 C3.35 1 1.7 1 0 1 C0 0.67 0 0.34 0 0 Z " fill="#4A454A" transform="translate(250,395)"/>
<path d="M0 0 C5.56818182 0.56818182 5.56818182 0.56818182 7 2 C7.1048724 4.19782061 7.13857031 6.39905415 7.14526367 8.59936523 C7.15030159 9.63352066 7.15030159 9.63352066 7.15544128 10.68856812 C7.1649777 12.97859475 7.16689574 15.26854847 7.16796875 17.55859375 C7.17117949 19.14421113 7.17454342 20.7298282 7.17805481 22.31544495 C7.18405283 25.64365323 7.18589402 28.97183552 7.18530273 32.30004883 C7.18520108 36.57203371 7.19885374 40.84385251 7.21607494 45.115798 C7.2271748 48.39196035 7.22922257 51.66808231 7.22869301 54.94426155 C7.22987616 56.5195784 7.23431656 58.09489619 7.24202538 59.67019463 C7.2517848 61.87066262 7.2489635 64.07076682 7.24291992 66.27124023 C7.24434494 67.52509018 7.24576996 68.77894012 7.24723816 70.07078552 C7 73 7 73 5 75 C2.5 75.25 2.5 75.25 0 75 C-2.84178065 72.15821935 -2.25372554 70.26755233 -2.25878906 66.28710938 C-2.2622937 65.5975264 -2.26579834 64.90794342 -2.26940918 64.19746399 C-2.27822829 61.91279095 -2.27237687 59.62842632 -2.265625 57.34375 C-2.2669716 55.75956157 -2.26891209 54.17537354 -2.27142334 52.59118652 C-2.27437484 49.26892162 -2.27007618 45.94676415 -2.26074219 42.62451172 C-2.24934758 38.36038409 -2.25590692 34.09650821 -2.26788712 29.83238983 C-2.27510505 26.56050714 -2.27281811 23.2886844 -2.26763153 20.01679993 C-2.26629485 18.44427969 -2.26794341 16.87175405 -2.27259064 15.29924011 C-2.27765485 13.10364307 -2.2699475 10.90845696 -2.25878906 8.71289062 C-2.25719788 7.46205688 -2.25560669 6.21122314 -2.25396729 4.92248535 C-2 2 -2 2 0 0 Z " fill="#5B535B" transform="translate(253,94)"/>
<path d="M0 0 C-1.82616178 4.12190801 -4.47972779 7.64381947 -7.0625 11.3125 C-16.30270422 24.63452728 -23.93292147 38.41475282 -31 53 C-31.33 53 -31.66 53 -32 53 C-31.99214478 51.92854736 -31.99214478 51.92854736 -31.98413086 50.83544922 C-31.81060921 31.89298972 -31.81060921 31.89298972 -33 13 C-31.76765625 12.56429688 -30.5353125 12.12859375 -29.265625 11.6796875 C-20.61497944 8.58036126 -12.26011098 5.42163044 -4.15234375 1.06640625 C-2 0 -2 0 0 0 Z " fill="#4A454A" transform="translate(347,327)"/>
<path d="M0 0 C1.63001953 0.01353516 1.63001953 0.01353516 3.29296875 0.02734375 C4.12441406 0.03894531 4.95585937 0.05054688 5.8125 0.0625 C5.61778491 7.70949257 3.64183915 13.00669456 -1.640625 18.6015625 C-7.6933516 24.04901644 -13.84698743 24.34747076 -21.5625 24.1875 C-22.39394531 24.17847656 -23.22539062 24.16945312 -24.08203125 24.16015625 C-26.11731337 24.1367622 -28.15244564 24.10089725 -30.1875 24.0625 C-29.28033382 16.5597021 -25.66090767 12.42836821 -20.3125 7.3125 C-13.88770557 2.68664801 -7.9906294 -0.08592075 0 0 Z " fill="#CAD0DC" transform="translate(325.1875,222.9375)"/>
<path d="M0 0 C10.37370805 -0.70998762 18.75285798 1.43977339 27 8 C36 17.24324324 36 17.24324324 36 24 C33.16607074 24.08174796 30.33455181 24.14084985 27.5 24.1875 C26.70851562 24.21263672 25.91703125 24.23777344 25.1015625 24.26367188 C18.56864379 24.34399465 12.99942777 23.39423349 7.79296875 19.23828125 C2.81705232 13.2696029 -0.23507741 8.00645993 0 0 Z " fill="#CAD1DD" transform="translate(181,223)"/>
<path d="M0 0 C4.34254201 1.37754354 8.46197748 3.02795782 12.625 4.875 C18.96235379 7.64940186 25.39179707 9.94250092 32 12 C31.9285376 12.54060059 31.8570752 13.08120117 31.78344727 13.63818359 C30.84684696 21.62996088 30.8868825 29.59305343 30.9375 37.625 C30.94252803 39.02473797 30.94708862 40.4244777 30.95117188 41.82421875 C30.96286833 45.21619169 30.97925914 48.60807233 31 52 C28.79335615 49.20867957 27.10857245 46.43609614 25.5390625 43.24609375 C18.57470264 29.35474553 11.00137743 16.10497103 1.33032227 3.89135742 C0 2 0 2 0 0 Z " fill="#494449" transform="translate(166,328)"/>
<path d="M0 0 C3 0.1875 3 0.1875 6 1 C11.21484174 8.82226261 10.02769165 22.19248599 8.66748047 31.20263672 C7.26224383 37.91292664 5.13759658 43.50187844 1 49 C-1.5625 50.0625 -1.5625 50.0625 -4 50 C-5.875 48.9375 -5.875 48.9375 -7 47 C-6.55998993 42.91419219 -5.44913742 39.54263869 -3.9375 35.75 C-1.26766312 27.54910321 -1.73791428 19.30805493 -1.97241211 10.76269531 C-1.99956299 9.66151367 -2.02671387 8.56033203 -2.0546875 7.42578125 C-2.09062012 6.42973877 -2.12655273 5.43369629 -2.16357422 4.4074707 C-2 2 -2 2 0 0 Z " fill="#5B535B" transform="translate(236,214)"/>
<path d="M0 0 C5.875 0.875 5.875 0.875 7 2 C7.05094155 3.71408892 7.03537755 5.4302295 6.9921875 7.14453125 C6.97542969 8.21509766 6.95867187 9.28566406 6.94140625 10.38867188 C6.89796523 12.62843951 6.84621754 14.86806534 6.78515625 17.10742188 C6.67737965 25.35233212 7.28327281 33.70849966 11.11669922 41.17504883 C12.36777477 43.75984422 11.84707158 45.31760667 11 48 C10.34 48.66 9.68 49.32 9 50 C6.625 50 6.625 50 4 49 C-4.01574008 38.58572765 -4.72647632 25.62615841 -4 13 C-3.95617187 12.07574219 -3.91234375 11.15148437 -3.8671875 10.19921875 C-3.55041699 5.99168006 -3.0444896 3.0444896 0 0 Z " fill="#5B535B" transform="translate(271,214)"/>
<path d="M0 0 C1 1.875 1 1.875 0.9375 4.9375 C0 7.875 0 7.875 -1.66796875 9.0078125 C-4.5348138 10.07387548 -7.21017883 10.35974677 -10.25 10.6875 C-15.60904718 11.42647175 -18.99379424 12.70758702 -23.3515625 15.82421875 C-25.65747953 17.29410425 -27.34690152 17.42122616 -30 16.875 C-32 14.875 -32 14.875 -32.0625 11.5625 C-30.8283167 7.27915795 -29.75213776 6.21873692 -26.09765625 3.9375 C-19.19277677 0.44005639 -7.2270623 -4.06522254 0 0 Z " fill="#5C535B" transform="translate(318,178.125)"/>
<path d="M0 0 C9.00354497 0.66375718 16.62416007 2.37755972 24.47265625 6.9296875 C27.03710799 9.92154787 27.27567552 12.23022803 27.34765625 16.1171875 C26.68765625 16.7771875 26.02765625 17.4371875 25.34765625 18.1171875 C21.72265625 17.7421875 21.72265625 17.7421875 18.34765625 17.1171875 C18.34765625 16.4571875 18.34765625 15.7971875 18.34765625 15.1171875 C11.78212168 13.21229353 5.34030126 11.67571536 -1.4375 10.7421875 C-3.65234375 10.1171875 -3.65234375 10.1171875 -5.65234375 7.1171875 C-5.24355841 2.92713776 -4.67558139 0.20657944 0 0 Z " fill="#5B535B" transform="translate(198.65234375,176.8828125)"/>
<path d="M0 0 C0.99 1.051875 0.99 1.051875 2 2.125 C2.99029965 3.09335395 3.99132352 4.05080321 5 5 C5.53496094 5.50402344 6.06992188 6.00804687 6.62109375 6.52734375 C12.63986558 11.61417671 19.48042642 13.2045962 27 15 C25.27350831 18.74467376 23.54766941 20.77239363 20 23 C14.13422143 22.4804866 10.86224172 19.1755934 7 15 C0 5.63584906 0 5.63584906 0 0 Z " fill="#70666F" transform="translate(228,381)"/>
<path d="M0 0 C8.16964286 5.89285714 8.16964286 5.89285714 11 10 C9.5437455 10.67119549 8.08492133 11.33681807 6.625 12 C5.40683594 12.556875 5.40683594 12.556875 4.1640625 13.125 C2 14 2 14 0 14 C0 9.38 0 4.76 0 0 Z " fill="#70666F" transform="translate(130,123)"/>
</svg>
